<?xml version="1.0" encoding="utf-8" standalone="no"?>
<!DOCTYPE svg PUBLIC "-//W3C//DTD SVG 1.1//EN"
  "http://www.w3.org/Graphics/SVG/1.1/DTD/svg11.dtd">
<svg xmlns:xlink="http://www.w3.org/1999/xlink" width="460.8pt" height="345.6pt" viewBox="0 0 460.8 345.6" xmlns="http://www.w3.org/2000/svg" version="1.1">
 <metadata>
  <rdf:RDF xmlns:dc="http://purl.org/dc/elements/1.1/" xmlns:cc="http://creativecommons.org/ns#" xmlns:rdf="http://www.w3.org/1999/02/22-rdf-syntax-ns#">
   <cc:Work>
    <dc:type rdf:resource="http://purl.org/dc/dcmitype/StillImage"/>
    <dc:date>2024-01-27T07:47:33.983519</dc:date>
    <dc:format>image/svg+xml</dc:format>
    <dc:creator>
     <cc:Agent>
      <dc:title>Matplotlib v3.7.1, https://matplotlib.org/</dc:title>
     </cc:Agent>
    </dc:creator>
   </cc:Work>
  </rdf:RDF>
 </metadata>
 <defs>
  <style type="text/css">*{stroke-linejoin: round; stroke-linecap: butt}</style>
 </defs>
 <g id="figure_1">
  <g id="patch_1">
   <path d="M 0 345.6 
L 460.8 345.6 
L 460.8 0 
L 0 0 
z
" style="fill: #ffffff"/>
  </g>
  <g id="axes_1">
   <g id="patch_2">
    <path d="M 57.6 307.584 
L 414.72 307.584 
L 414.72 41.472 
L 57.6 41.472 
z
" style="fill: #ffffff"/>
   </g>
   <g id="matplotlib.axis_1">
    <g id="xtick_1">
     <g id="line2d_1">
      <defs>
       <path id="mbb6e2ddd5b" d="M 0 0 
L 0 3.5 
" style="stroke: #000000; stroke-width: 0.8"/>
      </defs>
      <g>
       <use xlink:href="#mbb6e2ddd5b" x="73.832727" y="307.584" style="stroke: #000000; stroke-width: 0.8"/>
      </g>
     </g>
     <g id="text_1">
      <!-- 0 -->
      <g transform="translate(70.651477 322.182437) scale(0.1 -0.1)">
       <defs>
        <path id="DejaVuSans-30" d="M 2034 4250 
Q 1547 4250 1301 3770 
Q 1056 3291 1056 2328 
Q 1056 1369 1301 889 
Q 1547 409 2034 409 
Q 2525 409 2770 889 
Q 3016 1369 3016 2328 
Q 3016 3291 2770 3770 
Q 2525 4250 2034 4250 
z
M 2034 4750 
Q 2819 4750 3233 4129 
Q 3647 3509 3647 2328 
Q 3647 1150 3233 529 
Q 2819 -91 2034 -91 
Q 1250 -91 836 529 
Q 422 1150 422 2328 
Q 422 3509 836 4129 
Q 1250 4750 2034 4750 
z
" transform="scale(0.015625)"/>
       </defs>
       <use xlink:href="#DejaVuSans-30"/>
      </g>
     </g>
    </g>
    <g id="xtick_2">
     <g id="line2d_2">
      <g>
       <use xlink:href="#mbb6e2ddd5b" x="139.024403" y="307.584" style="stroke: #000000; stroke-width: 0.8"/>
      </g>
     </g>
     <g id="text_2">
      <!-- 50 -->
      <g transform="translate(132.661903 322.182437) scale(0.1 -0.1)">
       <defs>
        <path id="DejaVuSans-35" d="M 691 4666 
L 3169 4666 
L 3169 4134 
L 1269 4134 
L 1269 2991 
Q 1406 3038 1543 3061 
Q 1681 3084 1819 3084 
Q 2600 3084 3056 2656 
Q 3513 2228 3513 1497 
Q 3513 744 3044 326 
Q 2575 -91 1722 -91 
Q 1428 -91 1123 -41 
Q 819 9 494 109 
L 494 744 
Q 775 591 1075 516 
Q 1375 441 1709 441 
Q 2250 441 2565 725 
Q 2881 1009 2881 1497 
Q 2881 1984 2565 2268 
Q 2250 2553 1709 2553 
Q 1456 2553 1204 2497 
Q 953 2441 691 2322 
L 691 4666 
z
" transform="scale(0.015625)"/>
       </defs>
       <use xlink:href="#DejaVuSans-35"/>
       <use xlink:href="#DejaVuSans-30" x="63.623047"/>
      </g>
     </g>
    </g>
    <g id="xtick_3">
     <g id="line2d_3">
      <g>
       <use xlink:href="#mbb6e2ddd5b" x="204.216079" y="307.584" style="stroke: #000000; stroke-width: 0.8"/>
      </g>
     </g>
     <g id="text_3">
      <!-- 100 -->
      <g transform="translate(194.672329 322.182437) scale(0.1 -0.1)">
       <defs>
        <path id="DejaVuSans-31" d="M 794 531 
L 1825 531 
L 1825 4091 
L 703 3866 
L 703 4441 
L 1819 4666 
L 2450 4666 
L 2450 531 
L 3481 531 
L 3481 0 
L 794 0 
L 794 531 
z
" transform="scale(0.015625)"/>
       </defs>
       <use xlink:href="#DejaVuSans-31"/>
       <use xlink:href="#DejaVuSans-30" x="63.623047"/>
       <use xlink:href="#DejaVuSans-30" x="127.246094"/>
      </g>
     </g>
    </g>
    <g id="xtick_4">
     <g id="line2d_4">
      <g>
       <use xlink:href="#mbb6e2ddd5b" x="269.407755" y="307.584" style="stroke: #000000; stroke-width: 0.8"/>
      </g>
     </g>
     <g id="text_4">
      <!-- 150 -->
      <g transform="translate(259.864005 322.182437) scale(0.1 -0.1)">
       <use xlink:href="#DejaVuSans-31"/>
       <use xlink:href="#DejaVuSans-35" x="63.623047"/>
       <use xlink:href="#DejaVuSans-30" x="127.246094"/>
      </g>
     </g>
    </g>
    <g id="xtick_5">
     <g id="line2d_5">
      <g>
       <use xlink:href="#mbb6e2ddd5b" x="334.59943" y="307.584" style="stroke: #000000; stroke-width: 0.8"/>
      </g>
     </g>
     <g id="text_5">
      <!-- 200 -->
      <g transform="translate(325.05568 322.182437) scale(0.1 -0.1)">
       <defs>
        <path id="DejaVuSans-32" d="M 1228 531 
L 3431 531 
L 3431 0 
L 469 0 
L 469 531 
Q 828 903 1448 1529 
Q 2069 2156 2228 2338 
Q 2531 2678 2651 2914 
Q 2772 3150 2772 3378 
Q 2772 3750 2511 3984 
Q 2250 4219 1831 4219 
Q 1534 4219 1204 4116 
Q 875 4013 500 3803 
L 500 4441 
Q 881 4594 1212 4672 
Q 1544 4750 1819 4750 
Q 2544 4750 2975 4387 
Q 3406 4025 3406 3419 
Q 3406 3131 3298 2873 
Q 3191 2616 2906 2266 
Q 2828 2175 2409 1742 
Q 1991 1309 1228 531 
z
" transform="scale(0.015625)"/>
       </defs>
       <use xlink:href="#DejaVuSans-32"/>
       <use xlink:href="#DejaVuSans-30" x="63.623047"/>
       <use xlink:href="#DejaVuSans-30" x="127.246094"/>
      </g>
     </g>
    </g>
    <g id="xtick_6">
     <g id="line2d_6">
      <g>
       <use xlink:href="#mbb6e2ddd5b" x="399.791106" y="307.584" style="stroke: #000000; stroke-width: 0.8"/>
      </g>
     </g>
     <g id="text_6">
      <!-- 250 -->
      <g transform="translate(390.247356 322.182437) scale(0.1 -0.1)">
       <use xlink:href="#DejaVuSans-32"/>
       <use xlink:href="#DejaVuSans-35" x="63.623047"/>
       <use xlink:href="#DejaVuSans-30" x="127.246094"/>
      </g>
     </g>
    </g>
    <g id="text_7">
     <!-- Epochs -->
     <g transform="translate(218.244375 335.860562) scale(0.1 -0.1)">
      <defs>
       <path id="DejaVuSans-45" d="M 628 4666 
L 3578 4666 
L 3578 4134 
L 1259 4134 
L 1259 2753 
L 3481 2753 
L 3481 2222 
L 1259 2222 
L 1259 531 
L 3634 531 
L 3634 0 
L 628 0 
L 628 4666 
z
" transform="scale(0.015625)"/>
       <path id="DejaVuSans-70" d="M 1159 525 
L 1159 -1331 
L 581 -1331 
L 581 3500 
L 1159 3500 
L 1159 2969 
Q 1341 3281 1617 3432 
Q 1894 3584 2278 3584 
Q 2916 3584 3314 3078 
Q 3713 2572 3713 1747 
Q 3713 922 3314 415 
Q 2916 -91 2278 -91 
Q 1894 -91 1617 61 
Q 1341 213 1159 525 
z
M 3116 1747 
Q 3116 2381 2855 2742 
Q 2594 3103 2138 3103 
Q 1681 3103 1420 2742 
Q 1159 2381 1159 1747 
Q 1159 1113 1420 752 
Q 1681 391 2138 391 
Q 2594 391 2855 752 
Q 3116 1113 3116 1747 
z
" transform="scale(0.015625)"/>
       <path id="DejaVuSans-6f" d="M 1959 3097 
Q 1497 3097 1228 2736 
Q 959 2375 959 1747 
Q 959 1119 1226 758 
Q 1494 397 1959 397 
Q 2419 397 2687 759 
Q 2956 1122 2956 1747 
Q 2956 2369 2687 2733 
Q 2419 3097 1959 3097 
z
M 1959 3584 
Q 2709 3584 3137 3096 
Q 3566 2609 3566 1747 
Q 3566 888 3137 398 
Q 2709 -91 1959 -91 
Q 1206 -91 779 398 
Q 353 888 353 1747 
Q 353 2609 779 3096 
Q 1206 3584 1959 3584 
z
" transform="scale(0.015625)"/>
       <path id="DejaVuSans-63" d="M 3122 3366 
L 3122 2828 
Q 2878 2963 2633 3030 
Q 2388 3097 2138 3097 
Q 1578 3097 1268 2742 
Q 959 2388 959 1747 
Q 959 1106 1268 751 
Q 1578 397 2138 397 
Q 2388 397 2633 464 
Q 2878 531 3122 666 
L 3122 134 
Q 2881 22 2623 -34 
Q 2366 -91 2075 -91 
Q 1284 -91 818 406 
Q 353 903 353 1747 
Q 353 2603 823 3093 
Q 1294 3584 2113 3584 
Q 2378 3584 2631 3529 
Q 2884 3475 3122 3366 
z
" transform="scale(0.015625)"/>
       <path id="DejaVuSans-68" d="M 3513 2113 
L 3513 0 
L 2938 0 
L 2938 2094 
Q 2938 2591 2744 2837 
Q 2550 3084 2163 3084 
Q 1697 3084 1428 2787 
Q 1159 2491 1159 1978 
L 1159 0 
L 581 0 
L 581 4863 
L 1159 4863 
L 1159 2956 
Q 1366 3272 1645 3428 
Q 1925 3584 2291 3584 
Q 2894 3584 3203 3211 
Q 3513 2838 3513 2113 
z
" transform="scale(0.015625)"/>
       <path id="DejaVuSans-73" d="M 2834 3397 
L 2834 2853 
Q 2591 2978 2328 3040 
Q 2066 3103 1784 3103 
Q 1356 3103 1142 2972 
Q 928 2841 928 2578 
Q 928 2378 1081 2264 
Q 1234 2150 1697 2047 
L 1894 2003 
Q 2506 1872 2764 1633 
Q 3022 1394 3022 966 
Q 3022 478 2636 193 
Q 2250 -91 1575 -91 
Q 1294 -91 989 -36 
Q 684 19 347 128 
L 347 722 
Q 666 556 975 473 
Q 1284 391 1588 391 
Q 1994 391 2212 530 
Q 2431 669 2431 922 
Q 2431 1156 2273 1281 
Q 2116 1406 1581 1522 
L 1381 1569 
Q 847 1681 609 1914 
Q 372 2147 372 2553 
Q 372 3047 722 3315 
Q 1072 3584 1716 3584 
Q 2034 3584 2315 3537 
Q 2597 3491 2834 3397 
z
" transform="scale(0.015625)"/>
      </defs>
      <use xlink:href="#DejaVuSans-45"/>
      <use xlink:href="#DejaVuSans-70" x="63.183594"/>
      <use xlink:href="#DejaVuSans-6f" x="126.660156"/>
      <use xlink:href="#DejaVuSans-63" x="187.841797"/>
      <use xlink:href="#DejaVuSans-68" x="242.822266"/>
      <use xlink:href="#DejaVuSans-73" x="306.201172"/>
     </g>
    </g>
   </g>
   <g id="matplotlib.axis_2">
    <g id="ytick_1">
     <g id="line2d_7">
      <defs>
       <path id="mbc867aad6c" d="M 0 0 
L -3.5 0 
" style="stroke: #000000; stroke-width: 0.8"/>
      </defs>
      <g>
       <use xlink:href="#mbc867aad6c" x="57.6" y="295.861338" style="stroke: #000000; stroke-width: 0.8"/>
      </g>
     </g>
     <g id="text_8">
      <!-- 0 -->
      <g transform="translate(44.2375 299.660557) scale(0.1 -0.1)">
       <use xlink:href="#DejaVuSans-30"/>
      </g>
     </g>
    </g>
    <g id="ytick_2">
     <g id="line2d_8">
      <g>
       <use xlink:href="#mbc867aad6c" x="57.6" y="252.220353" style="stroke: #000000; stroke-width: 0.8"/>
      </g>
     </g>
     <g id="text_9">
      <!-- 1 -->
      <g transform="translate(44.2375 256.019572) scale(0.1 -0.1)">
       <use xlink:href="#DejaVuSans-31"/>
      </g>
     </g>
    </g>
    <g id="ytick_3">
     <g id="line2d_9">
      <g>
       <use xlink:href="#mbc867aad6c" x="57.6" y="208.579368" style="stroke: #000000; stroke-width: 0.8"/>
      </g>
     </g>
     <g id="text_10">
      <!-- 2 -->
      <g transform="translate(44.2375 212.378586) scale(0.1 -0.1)">
       <use xlink:href="#DejaVuSans-32"/>
      </g>
     </g>
    </g>
    <g id="ytick_4">
     <g id="line2d_10">
      <g>
       <use xlink:href="#mbc867aad6c" x="57.6" y="164.938382" style="stroke: #000000; stroke-width: 0.8"/>
      </g>
     </g>
     <g id="text_11">
      <!-- 3 -->
      <g transform="translate(44.2375 168.737601) scale(0.1 -0.1)">
       <defs>
        <path id="DejaVuSans-33" d="M 2597 2516 
Q 3050 2419 3304 2112 
Q 3559 1806 3559 1356 
Q 3559 666 3084 287 
Q 2609 -91 1734 -91 
Q 1441 -91 1130 -33 
Q 819 25 488 141 
L 488 750 
Q 750 597 1062 519 
Q 1375 441 1716 441 
Q 2309 441 2620 675 
Q 2931 909 2931 1356 
Q 2931 1769 2642 2001 
Q 2353 2234 1838 2234 
L 1294 2234 
L 1294 2753 
L 1863 2753 
Q 2328 2753 2575 2939 
Q 2822 3125 2822 3475 
Q 2822 3834 2567 4026 
Q 2313 4219 1838 4219 
Q 1578 4219 1281 4162 
Q 984 4106 628 3988 
L 628 4550 
Q 988 4650 1302 4700 
Q 1616 4750 1894 4750 
Q 2613 4750 3031 4423 
Q 3450 4097 3450 3541 
Q 3450 3153 3228 2886 
Q 3006 2619 2597 2516 
z
" transform="scale(0.015625)"/>
       </defs>
       <use xlink:href="#DejaVuSans-33"/>
      </g>
     </g>
    </g>
    <g id="ytick_5">
     <g id="line2d_11">
      <g>
       <use xlink:href="#mbc867aad6c" x="57.6" y="121.297397" style="stroke: #000000; stroke-width: 0.8"/>
      </g>
     </g>
     <g id="text_12">
      <!-- 4 -->
      <g transform="translate(44.2375 125.096616) scale(0.1 -0.1)">
       <defs>
        <path id="DejaVuSans-34" d="M 2419 4116 
L 825 1625 
L 2419 1625 
L 2419 4116 
z
M 2253 4666 
L 3047 4666 
L 3047 1625 
L 3713 1625 
L 3713 1100 
L 3047 1100 
L 3047 0 
L 2419 0 
L 2419 1100 
L 313 1100 
L 313 1709 
L 2253 4666 
z
" transform="scale(0.015625)"/>
       </defs>
       <use xlink:href="#DejaVuSans-34"/>
      </g>
     </g>
    </g>
    <g id="ytick_6">
     <g id="line2d_12">
      <g>
       <use xlink:href="#mbc867aad6c" x="57.6" y="77.656412" style="stroke: #000000; stroke-width: 0.8"/>
      </g>
     </g>
     <g id="text_13">
      <!-- 5 -->
      <g transform="translate(44.2375 81.455631) scale(0.1 -0.1)">
       <use xlink:href="#DejaVuSans-35"/>
      </g>
     </g>
    </g>
    <g id="text_14">
     <!-- Loss -->
     <g transform="translate(38.157812 185.495187) rotate(-90) scale(0.1 -0.1)">
      <defs>
       <path id="DejaVuSans-4c" d="M 628 4666 
L 1259 4666 
L 1259 531 
L 3531 531 
L 3531 0 
L 628 0 
L 628 4666 
z
" transform="scale(0.015625)"/>
      </defs>
      <use xlink:href="#DejaVuSans-4c"/>
      <use xlink:href="#DejaVuSans-6f" x="53.962891"/>
      <use xlink:href="#DejaVuSans-73" x="115.144531"/>
      <use xlink:href="#DejaVuSans-73" x="167.244141"/>
     </g>
    </g>
   </g>
   <g id="line2d_13">
    <path d="M 73.832727 199.640659 
L 75.136561 84.733763 
L 76.440394 70.163463 
L 77.744228 76.78261 
L 79.048061 106.958171 
L 80.351895 67.091635 
L 81.655728 57.436349 
L 82.959562 54.222071 
L 84.263395 53.568 
L 85.567229 78.073251 
L 86.871062 69.820043 
L 88.174896 55.467893 
L 89.478729 73.123865 
L 90.782563 77.811635 
L 92.086396 99.140985 
L 93.39023 102.056702 
L 94.694064 119.620523 
L 95.997897 112.243834 
L 97.301731 106.566242 
L 98.605564 114.899966 
L 101.213231 118.750617 
L 102.517065 118.914507 
L 103.820898 132.251678 
L 106.428565 153.741345 
L 107.732399 150.846708 
L 109.036232 153.352887 
L 110.340066 152.774224 
L 111.643899 153.412221 
L 112.947733 161.433341 
L 114.251566 157.821737 
L 115.5554 164.016987 
L 116.859233 164.236882 
L 118.163067 164.614129 
L 119.4669 166.780107 
L 120.770734 171.494725 
L 122.074567 166.791883 
L 123.378401 172.265012 
L 124.682234 167.713631 
L 125.986068 171.270062 
L 127.289901 167.67704 
L 128.593735 174.751304 
L 129.897568 172.600904 
L 131.201402 170.812364 
L 132.505235 173.599798 
L 133.809069 171.973116 
L 135.112903 170.156278 
L 136.416736 178.321909 
L 137.72057 175.815544 
L 139.024403 171.714776 
L 140.328237 172.914831 
L 141.63207 177.711453 
L 142.935904 168.743207 
L 144.239737 170.708006 
L 145.543571 175.629611 
L 146.847404 171.802898 
L 148.151238 171.909466 
L 149.455071 171.154892 
L 150.758905 174.005522 
L 152.062738 173.84169 
L 153.366572 173.162857 
L 154.670405 175.668317 
L 155.974239 173.084285 
L 157.278072 176.4358 
L 158.581906 175.616001 
L 159.885739 173.242936 
L 161.189573 170.57111 
L 162.493406 175.440164 
L 163.79724 177.539305 
L 165.101073 167.831963 
L 166.404907 175.186035 
L 167.70874 172.42218 
L 169.012574 174.645929 
L 170.316407 173.398082 
L 171.620241 178.712403 
L 172.924074 164.221249 
L 174.227908 171.018824 
L 175.531742 172.262953 
L 176.835575 176.213372 
L 178.139409 173.03063 
L 179.443242 172.622581 
L 180.747076 178.238968 
L 182.050909 172.849311 
L 183.354743 174.006012 
L 184.658576 171.358142 
L 185.96241 169.325339 
L 187.266243 174.140651 
L 188.570077 175.340906 
L 189.87391 170.667686 
L 191.177744 171.551454 
L 192.481577 168.689802 
L 193.785411 166.281537 
L 195.089244 166.590624 
L 196.393078 173.0461 
L 197.696911 175.8843 
L 199.000745 172.823149 
L 200.304578 171.853066 
L 201.608412 173.034631 
L 202.912245 167.617328 
L 204.216079 172.200273 
L 205.519912 171.591011 
L 206.823746 164.328046 
L 208.127579 171.759707 
L 209.431413 169.794965 
L 210.735246 168.951246 
L 212.03908 169.691433 
L 213.342913 164.892144 
L 214.646747 161.923181 
L 215.950581 165.439658 
L 218.558248 169.611935 
L 219.862081 167.360098 
L 221.165915 167.877421 
L 222.469748 161.007879 
L 223.773582 159.879114 
L 225.077415 159.369061 
L 226.381249 161.100854 
L 227.685082 166.324572 
L 228.988916 158.625293 
L 230.292749 161.901402 
L 231.596583 156.070425 
L 232.900416 163.135699 
L 234.20425 156.131729 
L 235.508083 163.819318 
L 236.811917 157.748 
L 238.11575 164.358988 
L 239.419584 157.492047 
L 240.723417 158.246902 
L 242.027251 159.355708 
L 243.331084 160.617226 
L 244.634918 161.165814 
L 245.938751 156.716733 
L 247.242585 156.84756 
L 248.546418 152.579702 
L 249.850252 149.466934 
L 251.154085 161.943735 
L 252.457919 155.660771 
L 253.761752 156.187815 
L 255.065586 154.66405 
L 256.369419 151.594676 
L 257.673253 148.110331 
L 258.977087 148.31448 
L 260.28092 151.308424 
L 261.584754 152.047092 
L 262.888587 151.842708 
L 264.192421 154.301762 
L 265.496254 150.009417 
L 266.800088 141.408867 
L 268.103921 150.92828 
L 269.407755 142.829612 
L 270.711588 152.14443 
L 272.015422 149.284044 
L 273.319255 150.849712 
L 274.623089 145.533302 
L 277.230756 145.37795 
L 278.534589 139.648004 
L 279.838423 142.716792 
L 281.142256 144.72149 
L 282.44609 143.719583 
L 283.749923 146.85739 
L 285.053757 151.059904 
L 286.35759 142.726339 
L 287.661424 143.194467 
L 288.965257 140.44158 
L 290.269091 138.162515 
L 291.572924 140.569854 
L 292.876758 140.771068 
L 294.180591 137.281529 
L 295.484425 132.658083 
L 296.788258 130.580032 
L 298.092092 132.265245 
L 299.395926 138.528173 
L 302.003593 136.872502 
L 303.307426 133.133875 
L 304.61126 139.76704 
L 305.915093 132.250183 
L 307.218927 131.233288 
L 308.52276 132.051227 
L 309.826594 128.456392 
L 311.130427 130.116979 
L 312.434261 136.399086 
L 313.738094 136.68366 
L 315.041928 130.633044 
L 316.345761 131.203484 
L 317.649595 128.060489 
L 318.953428 128.290305 
L 320.257262 128.008524 
L 321.561095 128.670051 
L 322.864929 131.926458 
L 324.168762 131.636356 
L 325.472596 126.803887 
L 326.776429 131.788023 
L 328.080263 120.767985 
L 329.384096 116.154753 
L 330.68793 124.088611 
L 331.991763 127.385979 
L 333.295597 126.470361 
L 334.59943 124.807436 
L 335.903264 130.00574 
L 337.207097 123.52625 
L 338.510931 126.364811 
L 339.814765 123.245857 
L 341.118598 119.012895 
L 342.422432 121.342837 
L 343.726265 116.44845 
L 345.030099 119.671613 
L 346.333932 117.491463 
L 347.637766 141.728159 
L 348.941599 133.778256 
L 350.245433 129.805753 
L 351.549266 127.38578 
L 352.8531 123.768567 
L 354.156933 118.374686 
L 355.460767 116.087787 
L 356.7646 112.447851 
L 358.068434 117.29462 
L 359.372267 111.649994 
L 360.676101 119.305477 
L 361.979934 113.410148 
L 364.587601 113.497509 
L 365.891435 114.580862 
L 367.195268 125.700318 
L 368.499102 119.36692 
L 369.802935 118.31283 
L 371.106769 113.27826 
L 372.410602 115.380143 
L 373.714436 113.945911 
L 375.018269 108.149575 
L 376.322103 104.508327 
L 377.625936 122.08472 
L 378.92977 112.231048 
L 380.233604 110.582782 
L 381.537437 107.046436 
L 382.841271 114.355064 
L 384.145104 110.047682 
L 385.448938 104.348102 
L 386.752771 102.229459 
L 388.056605 104.122947 
L 389.360438 107.904088 
L 390.664272 112.921654 
L 391.968105 113.280645 
L 393.271939 107.830827 
L 394.575772 118.428008 
L 395.879606 105.684127 
L 397.183439 103.780837 
L 398.487273 103.364491 
L 398.487273 103.364491 
" clip-path="url(#p348276d063)" style="fill: none; stroke: #1f77b4; stroke-width: 1.5; stroke-linecap: square"/>
   </g>
   <g id="line2d_14">
    <path d="M 73.832727 286.534637 
L 75.136561 295.488 
L 76.440394 293.436293 
L 77.744228 294.73618 
L 79.048061 291.224081 
L 80.351895 294.949354 
L 81.655728 295.130226 
L 82.959562 294.783599 
L 84.263395 293.926815 
L 85.567229 294.345172 
L 86.871062 293.645976 
L 88.174896 293.146175 
L 89.478729 293.404471 
L 90.782563 292.801062 
L 92.086396 293.050504 
L 93.39023 291.583274 
L 94.694064 291.171138 
L 95.997897 292.486677 
L 97.301731 292.268561 
L 98.605564 290.217296 
L 99.909398 290.477386 
L 101.213231 290.305571 
L 102.517065 291.358839 
L 103.820898 288.943441 
L 105.124732 288.189268 
L 107.732399 288.567899 
L 109.036232 288.63912 
L 110.340066 288.866957 
L 111.643899 287.719795 
L 112.947733 288.090634 
L 114.251566 288.088307 
L 115.5554 288.437941 
L 116.859233 287.227669 
L 118.163067 287.20552 
L 119.4669 288.038447 
L 120.770734 286.782618 
L 122.074567 287.862125 
L 123.378401 287.297325 
L 124.682234 287.538709 
L 125.986068 287.563347 
L 127.289901 288.193092 
L 128.593735 287.673431 
L 129.897568 286.948253 
L 131.201402 288.097756 
L 132.505235 287.855865 
L 133.809069 287.253827 
L 135.112903 286.409156 
L 136.416736 287.389678 
L 137.72057 286.952389 
L 139.024403 287.424789 
L 140.328237 287.580837 
L 141.63207 287.085298 
L 142.935904 288.277366 
L 144.239737 287.072837 
L 145.543571 287.368217 
L 146.847404 286.897108 
L 148.151238 287.160429 
L 149.455071 287.844889 
L 150.758905 286.773837 
L 152.062738 288.394989 
L 153.366572 286.804759 
L 154.670405 287.024427 
L 155.974239 287.861389 
L 157.278072 287.456934 
L 158.581906 287.223331 
L 159.885739 288.005922 
L 161.189573 287.678935 
L 162.493406 286.849659 
L 163.79724 287.803482 
L 165.101073 288.09117 
L 166.404907 287.702961 
L 167.70874 288.582805 
L 169.012574 288.356397 
L 170.316407 287.978246 
L 171.620241 287.236172 
L 172.924074 288.581039 
L 174.227908 287.184774 
L 175.531742 288.272857 
L 176.835575 288.093739 
L 178.139409 288.233471 
L 179.443242 287.304547 
L 180.747076 288.108115 
L 182.050909 287.39264 
L 183.354743 288.768128 
L 184.658576 289.098208 
L 185.96241 287.197366 
L 187.266243 288.097092 
L 188.570077 288.298757 
L 189.87391 288.943914 
L 191.177744 288.650309 
L 192.481577 288.902549 
L 193.785411 287.723258 
L 195.089244 287.458396 
L 196.393078 287.933086 
L 197.696911 287.829198 
L 199.000745 287.925724 
L 200.304578 287.471081 
L 201.608412 289.204622 
L 202.912245 289.321525 
L 204.216079 287.239528 
L 205.519912 289.526668 
L 206.823746 287.754625 
L 208.127579 288.754235 
L 209.431413 288.895291 
L 210.735246 289.613819 
L 212.03908 289.764005 
L 213.342913 289.3838 
L 214.646747 288.584704 
L 215.950581 288.289413 
L 217.254414 287.089773 
L 218.558248 288.827551 
L 219.862081 289.806273 
L 221.165915 289.688686 
L 222.469748 289.99926 
L 223.773582 289.889988 
L 225.077415 289.539264 
L 226.381249 288.376015 
L 227.685082 290.010584 
L 228.988916 288.953967 
L 230.292749 290.470751 
L 231.596583 289.95688 
L 232.900416 290.880433 
L 234.20425 288.626451 
L 235.508083 289.803393 
L 236.811917 289.11494 
L 238.11575 289.666415 
L 239.419584 290.820265 
L 240.723417 290.235797 
L 242.027251 289.89736 
L 243.331084 289.27201 
L 244.634918 290.579467 
L 245.938751 289.993663 
L 247.242585 289.533542 
L 248.546418 290.754767 
L 249.850252 289.733061 
L 251.154085 289.726769 
L 252.457919 290.532469 
L 253.761752 289.92588 
L 255.065586 291.076885 
L 256.369419 290.836929 
L 257.673253 290.405632 
L 258.977087 290.433563 
L 260.28092 289.672532 
L 261.584754 290.884047 
L 262.888587 289.884823 
L 264.192421 290.927312 
L 265.496254 291.737102 
L 266.800088 290.567009 
L 268.103921 291.173538 
L 269.407755 289.632124 
L 270.711588 291.576887 
L 272.015422 291.513987 
L 273.319255 290.341239 
L 274.623089 290.39049 
L 275.926922 292.09469 
L 277.230756 291.1646 
L 278.534589 291.9325 
L 279.838423 289.26487 
L 281.142256 290.719138 
L 282.44609 291.651328 
L 283.749923 288.675905 
L 285.053757 291.856963 
L 286.35759 291.544554 
L 287.661424 291.828478 
L 288.965257 291.950596 
L 290.269091 291.461562 
L 292.876758 292.029812 
L 294.180591 292.503595 
L 295.484425 291.855908 
L 296.788258 292.821066 
L 298.092092 289.969742 
L 300.699759 290.843396 
L 302.003593 292.605612 
L 303.307426 290.44852 
L 304.61126 292.531385 
L 305.915093 292.789345 
L 307.218927 292.234587 
L 308.52276 292.563671 
L 309.826594 290.681973 
L 311.130427 289.23188 
L 312.434261 292.687509 
L 313.738094 292.207157 
L 315.041928 292.925681 
L 316.345761 292.665826 
L 317.649595 292.71752 
L 318.953428 291.257011 
L 320.257262 292.270768 
L 321.561095 290.1938 
L 322.864929 290.906417 
L 324.168762 293.26055 
L 325.472596 292.05822 
L 326.776429 293.219651 
L 328.080263 291.721366 
L 329.384096 292.458605 
L 330.68793 290.616336 
L 331.991763 292.587056 
L 333.295597 292.705334 
L 334.59943 292.148142 
L 335.903264 291.409306 
L 337.207097 292.745914 
L 338.510931 291.944486 
L 339.814765 292.249816 
L 341.118598 293.046622 
L 342.422432 291.404675 
L 343.726265 293.566446 
L 345.030099 292.552155 
L 346.333932 288.123765 
L 347.637766 288.613482 
L 348.941599 293.358281 
L 350.245433 292.89796 
L 351.549266 292.831181 
L 352.8531 292.352165 
L 354.156933 293.57976 
L 355.460767 293.641593 
L 356.7646 294.062233 
L 358.068434 291.048702 
L 359.372267 291.842291 
L 361.979934 293.801067 
L 363.283768 293.378598 
L 364.587601 291.772698 
L 365.891435 289.149752 
L 367.195268 292.608779 
L 368.499102 293.667437 
L 369.802935 293.431773 
L 371.106769 293.903877 
L 372.410602 291.859528 
L 373.714436 294.011877 
L 375.018269 294.146435 
L 376.322103 290.924919 
L 377.625936 292.757997 
L 378.92977 293.993251 
L 380.233604 293.281934 
L 381.537437 291.511648 
L 382.841271 293.212579 
L 384.145104 293.801733 
L 385.448938 294.106876 
L 386.752771 293.844535 
L 388.056605 292.29209 
L 389.360438 290.129046 
L 390.664272 292.81435 
L 391.968105 293.475518 
L 393.271939 293.17777 
L 394.575772 292.554161 
L 395.879606 294.14533 
L 397.183439 293.944292 
L 398.487273 293.560957 
L 398.487273 293.560957 
" clip-path="url(#p348276d063)" style="fill: none; stroke: #ff7f0e; stroke-width: 1.5; stroke-linecap: square"/>
   </g>
   <g id="patch_3">
    <path d="M 57.6 307.584 
L 57.6 41.472 
" style="fill: none; stroke: #000000; stroke-width: 0.8; stroke-linejoin: miter; stroke-linecap: square"/>
   </g>
   <g id="patch_4">
    <path d="M 414.72 307.584 
L 414.72 41.472 
" style="fill: none; stroke: #000000; stroke-width: 0.8; stroke-linejoin: miter; stroke-linecap: square"/>
   </g>
   <g id="patch_5">
    <path d="M 57.6 307.584 
L 414.72 307.584 
" style="fill: none; stroke: #000000; stroke-width: 0.8; stroke-linejoin: miter; stroke-linecap: square"/>
   </g>
   <g id="patch_6">
    <path d="M 57.6 41.472 
L 414.72 41.472 
" style="fill: none; stroke: #000000; stroke-width: 0.8; stroke-linejoin: miter; stroke-linecap: square"/>
   </g>
   <g id="text_15">
    <!-- Generator &amp; Discriminator Loss -->
    <g transform="translate(141.805313 35.472) scale(0.12 -0.12)">
     <defs>
      <path id="DejaVuSans-47" d="M 3809 666 
L 3809 1919 
L 2778 1919 
L 2778 2438 
L 4434 2438 
L 4434 434 
Q 4069 175 3628 42 
Q 3188 -91 2688 -91 
Q 1594 -91 976 548 
Q 359 1188 359 2328 
Q 359 3472 976 4111 
Q 1594 4750 2688 4750 
Q 3144 4750 3555 4637 
Q 3966 4525 4313 4306 
L 4313 3634 
Q 3963 3931 3569 4081 
Q 3175 4231 2741 4231 
Q 1884 4231 1454 3753 
Q 1025 3275 1025 2328 
Q 1025 1384 1454 906 
Q 1884 428 2741 428 
Q 3075 428 3337 486 
Q 3600 544 3809 666 
z
" transform="scale(0.015625)"/>
      <path id="DejaVuSans-65" d="M 3597 1894 
L 3597 1613 
L 953 1613 
Q 991 1019 1311 708 
Q 1631 397 2203 397 
Q 2534 397 2845 478 
Q 3156 559 3463 722 
L 3463 178 
Q 3153 47 2828 -22 
Q 2503 -91 2169 -91 
Q 1331 -91 842 396 
Q 353 884 353 1716 
Q 353 2575 817 3079 
Q 1281 3584 2069 3584 
Q 2775 3584 3186 3129 
Q 3597 2675 3597 1894 
z
M 3022 2063 
Q 3016 2534 2758 2815 
Q 2500 3097 2075 3097 
Q 1594 3097 1305 2825 
Q 1016 2553 972 2059 
L 3022 2063 
z
" transform="scale(0.015625)"/>
      <path id="DejaVuSans-6e" d="M 3513 2113 
L 3513 0 
L 2938 0 
L 2938 2094 
Q 2938 2591 2744 2837 
Q 2550 3084 2163 3084 
Q 1697 3084 1428 2787 
Q 1159 2491 1159 1978 
L 1159 0 
L 581 0 
L 581 3500 
L 1159 3500 
L 1159 2956 
Q 1366 3272 1645 3428 
Q 1925 3584 2291 3584 
Q 2894 3584 3203 3211 
Q 3513 2838 3513 2113 
z
" transform="scale(0.015625)"/>
      <path id="DejaVuSans-72" d="M 2631 2963 
Q 2534 3019 2420 3045 
Q 2306 3072 2169 3072 
Q 1681 3072 1420 2755 
Q 1159 2438 1159 1844 
L 1159 0 
L 581 0 
L 581 3500 
L 1159 3500 
L 1159 2956 
Q 1341 3275 1631 3429 
Q 1922 3584 2338 3584 
Q 2397 3584 2469 3576 
Q 2541 3569 2628 3553 
L 2631 2963 
z
" transform="scale(0.015625)"/>
      <path id="DejaVuSans-61" d="M 2194 1759 
Q 1497 1759 1228 1600 
Q 959 1441 959 1056 
Q 959 750 1161 570 
Q 1363 391 1709 391 
Q 2188 391 2477 730 
Q 2766 1069 2766 1631 
L 2766 1759 
L 2194 1759 
z
M 3341 1997 
L 3341 0 
L 2766 0 
L 2766 531 
Q 2569 213 2275 61 
Q 1981 -91 1556 -91 
Q 1019 -91 701 211 
Q 384 513 384 1019 
Q 384 1609 779 1909 
Q 1175 2209 1959 2209 
L 2766 2209 
L 2766 2266 
Q 2766 2663 2505 2880 
Q 2244 3097 1772 3097 
Q 1472 3097 1187 3025 
Q 903 2953 641 2809 
L 641 3341 
Q 956 3463 1253 3523 
Q 1550 3584 1831 3584 
Q 2591 3584 2966 3190 
Q 3341 2797 3341 1997 
z
" transform="scale(0.015625)"/>
      <path id="DejaVuSans-74" d="M 1172 4494 
L 1172 3500 
L 2356 3500 
L 2356 3053 
L 1172 3053 
L 1172 1153 
Q 1172 725 1289 603 
Q 1406 481 1766 481 
L 2356 481 
L 2356 0 
L 1766 0 
Q 1100 0 847 248 
Q 594 497 594 1153 
L 594 3053 
L 172 3053 
L 172 3500 
L 594 3500 
L 594 4494 
L 1172 4494 
z
" transform="scale(0.015625)"/>
      <path id="DejaVuSans-20" transform="scale(0.015625)"/>
      <path id="DejaVuSans-26" d="M 1556 2509 
Q 1272 2256 1139 2004 
Q 1006 1753 1006 1478 
Q 1006 1022 1337 719 
Q 1669 416 2169 416 
Q 2466 416 2725 514 
Q 2984 613 3213 813 
L 1556 2509 
z
M 1997 2859 
L 3584 1234 
Q 3769 1513 3872 1830 
Q 3975 2147 3994 2503 
L 4575 2503 
Q 4538 2091 4375 1687 
Q 4213 1284 3922 891 
L 4794 0 
L 4006 0 
L 3559 459 
Q 3234 181 2878 45 
Q 2522 -91 2113 -91 
Q 1359 -91 881 339 
Q 403 769 403 1441 
Q 403 1841 612 2192 
Q 822 2544 1241 2853 
Q 1091 3050 1012 3245 
Q 934 3441 934 3628 
Q 934 4134 1281 4442 
Q 1628 4750 2203 4750 
Q 2463 4750 2720 4694 
Q 2978 4638 3244 4525 
L 3244 3956 
Q 2972 4103 2725 4179 
Q 2478 4256 2266 4256 
Q 1938 4256 1733 4082 
Q 1528 3909 1528 3634 
Q 1528 3475 1620 3314 
Q 1713 3153 1997 2859 
z
" transform="scale(0.015625)"/>
      <path id="DejaVuSans-44" d="M 1259 4147 
L 1259 519 
L 2022 519 
Q 2988 519 3436 956 
Q 3884 1394 3884 2338 
Q 3884 3275 3436 3711 
Q 2988 4147 2022 4147 
L 1259 4147 
z
M 628 4666 
L 1925 4666 
Q 3281 4666 3915 4102 
Q 4550 3538 4550 2338 
Q 4550 1131 3912 565 
Q 3275 0 1925 0 
L 628 0 
L 628 4666 
z
" transform="scale(0.015625)"/>
      <path id="DejaVuSans-69" d="M 603 3500 
L 1178 3500 
L 1178 0 
L 603 0 
L 603 3500 
z
M 603 4863 
L 1178 4863 
L 1178 4134 
L 603 4134 
L 603 4863 
z
" transform="scale(0.015625)"/>
      <path id="DejaVuSans-6d" d="M 3328 2828 
Q 3544 3216 3844 3400 
Q 4144 3584 4550 3584 
Q 5097 3584 5394 3201 
Q 5691 2819 5691 2113 
L 5691 0 
L 5113 0 
L 5113 2094 
Q 5113 2597 4934 2840 
Q 4756 3084 4391 3084 
Q 3944 3084 3684 2787 
Q 3425 2491 3425 1978 
L 3425 0 
L 2847 0 
L 2847 2094 
Q 2847 2600 2669 2842 
Q 2491 3084 2119 3084 
Q 1678 3084 1418 2786 
Q 1159 2488 1159 1978 
L 1159 0 
L 581 0 
L 581 3500 
L 1159 3500 
L 1159 2956 
Q 1356 3278 1631 3431 
Q 1906 3584 2284 3584 
Q 2666 3584 2933 3390 
Q 3200 3197 3328 2828 
z
" transform="scale(0.015625)"/>
     </defs>
     <use xlink:href="#DejaVuSans-47"/>
     <use xlink:href="#DejaVuSans-65" x="77.490234"/>
     <use xlink:href="#DejaVuSans-6e" x="139.013672"/>
     <use xlink:href="#DejaVuSans-65" x="202.392578"/>
     <use xlink:href="#DejaVuSans-72" x="263.916016"/>
     <use xlink:href="#DejaVuSans-61" x="305.029297"/>
     <use xlink:href="#DejaVuSans-74" x="366.308594"/>
     <use xlink:href="#DejaVuSans-6f" x="405.517578"/>
     <use xlink:href="#DejaVuSans-72" x="466.699219"/>
     <use xlink:href="#DejaVuSans-20" x="507.8125"/>
     <use xlink:href="#DejaVuSans-26" x="539.599609"/>
     <use xlink:href="#DejaVuSans-20" x="617.578125"/>
     <use xlink:href="#DejaVuSans-44" x="649.365234"/>
     <use xlink:href="#DejaVuSans-69" x="726.367188"/>
     <use xlink:href="#DejaVuSans-73" x="754.150391"/>
     <use xlink:href="#DejaVuSans-63" x="806.25"/>
     <use xlink:href="#DejaVuSans-72" x="861.230469"/>
     <use xlink:href="#DejaVuSans-69" x="902.34375"/>
     <use xlink:href="#DejaVuSans-6d" x="930.126953"/>
     <use xlink:href="#DejaVuSans-69" x="1027.539062"/>
     <use xlink:href="#DejaVuSans-6e" x="1055.322266"/>
     <use xlink:href="#DejaVuSans-61" x="1118.701172"/>
     <use xlink:href="#DejaVuSans-74" x="1179.980469"/>
     <use xlink:href="#DejaVuSans-6f" x="1219.189453"/>
     <use xlink:href="#DejaVuSans-72" x="1280.371094"/>
     <use xlink:href="#DejaVuSans-20" x="1321.484375"/>
     <use xlink:href="#DejaVuSans-4c" x="1353.271484"/>
     <use xlink:href="#DejaVuSans-6f" x="1407.234375"/>
     <use xlink:href="#DejaVuSans-73" x="1468.416016"/>
     <use xlink:href="#DejaVuSans-73" x="1520.515625"/>
    </g>
   </g>
   <g id="legend_1">
    <g id="patch_7">
     <path d="M 283.398125 78.82825 
L 407.72 78.82825 
Q 409.72 78.82825 409.72 76.82825 
L 409.72 48.472 
Q 409.72 46.472 407.72 46.472 
L 283.398125 46.472 
Q 281.398125 46.472 281.398125 48.472 
L 281.398125 76.82825 
Q 281.398125 78.82825 283.398125 78.82825 
z
" style="fill: #ffffff; opacity: 0.8; stroke: #cccccc; stroke-linejoin: miter"/>
    </g>
    <g id="line2d_15">
     <path d="M 285.398125 54.570437 
L 295.398125 54.570437 
L 305.398125 54.570437 
" style="fill: none; stroke: #1f77b4; stroke-width: 1.5; stroke-linecap: square"/>
    </g>
    <g id="text_16">
     <!-- Generator Loss -->
     <g transform="translate(313.398125 58.070437) scale(0.1 -0.1)">
      <use xlink:href="#DejaVuSans-47"/>
      <use xlink:href="#DejaVuSans-65" x="77.490234"/>
      <use xlink:href="#DejaVuSans-6e" x="139.013672"/>
      <use xlink:href="#DejaVuSans-65" x="202.392578"/>
      <use xlink:href="#DejaVuSans-72" x="263.916016"/>
      <use xlink:href="#DejaVuSans-61" x="305.029297"/>
      <use xlink:href="#DejaVuSans-74" x="366.308594"/>
      <use xlink:href="#DejaVuSans-6f" x="405.517578"/>
      <use xlink:href="#DejaVuSans-72" x="466.699219"/>
      <use xlink:href="#DejaVuSans-20" x="507.8125"/>
      <use xlink:href="#DejaVuSans-4c" x="539.599609"/>
      <use xlink:href="#DejaVuSans-6f" x="593.5625"/>
      <use xlink:href="#DejaVuSans-73" x="654.744141"/>
      <use xlink:href="#DejaVuSans-73" x="706.84375"/>
     </g>
    </g>
    <g id="line2d_16">
     <path d="M 285.398125 69.248562 
L 295.398125 69.248562 
L 305.398125 69.248562 
" style="fill: none; stroke: #ff7f0e; stroke-width: 1.5; stroke-linecap: square"/>
    </g>
    <g id="text_17">
     <!-- Discriminator Loss -->
     <g transform="translate(313.398125 72.748562) scale(0.1 -0.1)">
      <use xlink:href="#DejaVuSans-44"/>
      <use xlink:href="#DejaVuSans-69" x="77.001953"/>
      <use xlink:href="#DejaVuSans-73" x="104.785156"/>
      <use xlink:href="#DejaVuSans-63" x="156.884766"/>
      <use xlink:href="#DejaVuSans-72" x="211.865234"/>
      <use xlink:href="#DejaVuSans-69" x="252.978516"/>
      <use xlink:href="#DejaVuSans-6d" x="280.761719"/>
      <use xlink:href="#DejaVuSans-69" x="378.173828"/>
      <use xlink:href="#DejaVuSans-6e" x="405.957031"/>
      <use xlink:href="#DejaVuSans-61" x="469.335938"/>
      <use xlink:href="#DejaVuSans-74" x="530.615234"/>
      <use xlink:href="#DejaVuSans-6f" x="569.824219"/>
      <use xlink:href="#DejaVuSans-72" x="631.005859"/>
      <use xlink:href="#DejaVuSans-20" x="672.119141"/>
      <use xlink:href="#DejaVuSans-4c" x="703.90625"/>
      <use xlink:href="#DejaVuSans-6f" x="757.869141"/>
      <use xlink:href="#DejaVuSans-73" x="819.050781"/>
      <use xlink:href="#DejaVuSans-73" x="871.150391"/>
     </g>
    </g>
   </g>
  </g>
 </g>
 <defs>
  <clipPath id="p348276d063">
   <rect x="57.6" y="41.472" width="357.12" height="266.112"/>
  </clipPath>
 </defs>
</svg>
